<mxfile host="app.diagrams.net" agent="Mozilla/5.0 (Macintosh; Intel Mac OS X 10_15_7) AppleWebKit/537.36 (KHTML, like Gecko) Chrome/137.0.0.0 Safari/537.36" version="27.1.6">
  <diagram name="第 1 页" id="nQcwwQYUxT1xVUrRaTc9">
    <mxGraphModel dx="1979" dy="571" grid="1" gridSize="10" guides="1" tooltips="1" connect="1" arrows="1" fold="1" page="1" pageScale="1" pageWidth="827" pageHeight="1169" math="0" shadow="0">
      <root>
        <mxCell id="0" />
        <mxCell id="1" parent="0" />
        <mxCell id="S_kCAmrRLUKjRK4tz0ea-1" value="" style="rounded=0;whiteSpace=wrap;html=1;dashed=1;dashPattern=8 8;" vertex="1" parent="1">
          <mxGeometry x="43" y="160" width="757" height="130" as="geometry" />
        </mxCell>
        <mxCell id="S_kCAmrRLUKjRK4tz0ea-4" value="" style="rounded=0;whiteSpace=wrap;html=1;dashed=1;dashPattern=8 8;" vertex="1" parent="1">
          <mxGeometry x="43" y="305" width="757" height="345" as="geometry" />
        </mxCell>
        <mxCell id="S_kCAmrRLUKjRK4tz0ea-6" value="&lt;font style=&quot;font-size: 14px;&quot;&gt;缺陷库构建&lt;/font&gt;" style="text;html=1;align=center;verticalAlign=middle;whiteSpace=wrap;rounded=0;" vertex="1" parent="1">
          <mxGeometry x="43" y="163" width="90" height="20" as="geometry" />
        </mxCell>
        <mxCell id="S_kCAmrRLUKjRK4tz0ea-8" value="&lt;span style=&quot;font-size: 14px;&quot;&gt;性能蜕变测试&lt;/span&gt;" style="text;html=1;align=center;verticalAlign=middle;whiteSpace=wrap;rounded=0;" vertex="1" parent="1">
          <mxGeometry x="48" y="311" width="90" height="20" as="geometry" />
        </mxCell>
        <mxCell id="S_kCAmrRLUKjRK4tz0ea-10" value="Github/&lt;div&gt;Stackoverflow&lt;/div&gt;" style="text;html=1;align=center;verticalAlign=middle;whiteSpace=wrap;rounded=0;" vertex="1" parent="1">
          <mxGeometry x="-40" y="252" width="60" height="30" as="geometry" />
        </mxCell>
        <mxCell id="S_kCAmrRLUKjRK4tz0ea-24" style="edgeStyle=orthogonalEdgeStyle;rounded=0;orthogonalLoop=1;jettySize=auto;html=1;exitX=1;exitY=0.5;exitDx=0;exitDy=0;" edge="1" parent="1" source="S_kCAmrRLUKjRK4tz0ea-11" target="S_kCAmrRLUKjRK4tz0ea-12">
          <mxGeometry relative="1" as="geometry" />
        </mxCell>
        <mxCell id="S_kCAmrRLUKjRK4tz0ea-11" value="(1) 原始问题收集" style="rounded=0;whiteSpace=wrap;html=1;" vertex="1" parent="1">
          <mxGeometry x="70" y="202" width="100" height="60" as="geometry" />
        </mxCell>
        <mxCell id="S_kCAmrRLUKjRK4tz0ea-25" style="edgeStyle=orthogonalEdgeStyle;rounded=0;orthogonalLoop=1;jettySize=auto;html=1;exitX=1;exitY=0.5;exitDx=0;exitDy=0;entryX=0;entryY=0.5;entryDx=0;entryDy=0;" edge="1" parent="1" source="S_kCAmrRLUKjRK4tz0ea-12" target="S_kCAmrRLUKjRK4tz0ea-13">
          <mxGeometry relative="1" as="geometry" />
        </mxCell>
        <mxCell id="S_kCAmrRLUKjRK4tz0ea-12" value="(2) 缺陷信息提取与特征向量构建" style="rounded=0;whiteSpace=wrap;html=1;" vertex="1" parent="1">
          <mxGeometry x="210" y="202" width="100" height="60" as="geometry" />
        </mxCell>
        <mxCell id="S_kCAmrRLUKjRK4tz0ea-28" style="edgeStyle=orthogonalEdgeStyle;rounded=0;orthogonalLoop=1;jettySize=auto;html=1;exitX=1;exitY=0.5;exitDx=0;exitDy=0;" edge="1" parent="1" source="S_kCAmrRLUKjRK4tz0ea-13" target="S_kCAmrRLUKjRK4tz0ea-14">
          <mxGeometry relative="1" as="geometry" />
        </mxCell>
        <mxCell id="S_kCAmrRLUKjRK4tz0ea-13" value="(3) 缺陷聚类分析" style="rounded=0;whiteSpace=wrap;html=1;" vertex="1" parent="1">
          <mxGeometry x="347" y="202" width="100" height="60" as="geometry" />
        </mxCell>
        <mxCell id="S_kCAmrRLUKjRK4tz0ea-29" style="edgeStyle=orthogonalEdgeStyle;rounded=0;orthogonalLoop=1;jettySize=auto;html=1;exitX=1;exitY=0.5;exitDx=0;exitDy=0;entryX=0;entryY=0.5;entryDx=0;entryDy=0;" edge="1" parent="1" source="S_kCAmrRLUKjRK4tz0ea-14" target="S_kCAmrRLUKjRK4tz0ea-19">
          <mxGeometry relative="1" as="geometry" />
        </mxCell>
        <mxCell id="S_kCAmrRLUKjRK4tz0ea-14" value="" style="rounded=0;whiteSpace=wrap;html=1;" vertex="1" parent="1">
          <mxGeometry x="485" y="188" width="205" height="89" as="geometry" />
        </mxCell>
        <mxCell id="S_kCAmrRLUKjRK4tz0ea-15" value="(4) 性能缺陷复现" style="rounded=0;whiteSpace=wrap;html=1;" vertex="1" parent="1">
          <mxGeometry x="485" y="188" width="205" height="29" as="geometry" />
        </mxCell>
        <mxCell id="S_kCAmrRLUKjRK4tz0ea-16" value="" style="shape=image;verticalLabelPosition=bottom;labelBackgroundColor=default;verticalAlign=top;aspect=fixed;imageAspect=0;image=data:image/png,iVBORw0KGgoAAAANSUhEUgAAAMgAAADICAYAAACtWK6eAAAAAXNSR0IArs4c6QAADFFJREFUeF7tnVuW5DYMQ3tWlmRlk6wsycqSUac96UdVGZAgSyVdnzM/0zRFgoAo+VXfXjhAAATuIvANbEAABO4jgEBgBwg8QACBQA8QQCBwAATqEKCD1OHGWZsggEA2KTRp1iGAQOpw46xNEEAgmxSaNOsQeDaB/FqXJmdthMBfyVyfQSBFFN9fXl4QR7Ly6/v640eKv7emObNAEEZrdTm/INAklFkFUpRfugYHCKQQ+O3HKsRefs0oEMSRogR+PiNgi2Q2gSAOSN0TgdJBikjkYzaB/CNHjiEI1CFg7UlmEgjdo67gnOUjIPNeNvRjsM/4k0u5NmacUIeAvBeZSSDK8qq0Rw4QOEPg7AqovBeZRSDlnkfpII8Oa+14hiB/XxqBs9UIAlm6/CR3hgACOUOIv2+NwJlACjjS6kkyugBqllgXgLzREAhko2KTqo8AAvEx44yNEEAgGxWbVH0EEIiPGWdshAAC2ajYpOojgEB8zDhjIwQQyEbFJlUfAQTiY8YZGyGAQDYqNqn6CCAQHzPO2AiB6QXifqLn+ILJoxrKT2BuRARSvY3AVAIp5C7/fuGFJ/gqIlAmu7/fvjJif2lEGGMagSiBCPlgsjECPd7zUXgpPagrGd0oHh9125jRnVJPCmWoQJRH0zthiNvFEUiJZKhAlHfHF68j6XVEQP6gwoMYhgmET/N0ZAauXxFIXK0cJhC6Byy+AoHWpdYQgdA9rqAGYyS6yBCBKIMe17dnLHO5T8MxBwLKjeSWvYjCVekKrmT0hunZ8iqxdpyjfETRGwHlSigC6V0F/E+LgCKQln0IHWTa0hOYggACUVDCZlsEEMi2pSdxBQEEoqCEzbYIIJBtS0/iCgIIREEJm20RQCDblp7EFQQQiIISNtsigEC2LT2JKwggEAUlbLZFAIFsW3oSVxBAIApK2GyLAALZtvQkriCAQBSUsNkWAQTSsfTHyzbHj8UrL9/0Cuf9C2Lljctex+cvT6Zyvir+z7ggkE5Mmf2135Z3GG5BdvX3x9Lx36MBAgkLRAE0PGS1uzIrF6K1flJz5GTQ8jafApxSzxaxbvXC1EiiKMW+Z9NCshlybon/DDcEcoaQ8fezd+ENV5ea1r6jP4M4DqCcbxY44CIQB60HtjORpSYlVySz5evGr2KEQFSkFhbHkZqzVJlNICUHJ3617AhERWoDgTibzRmXkz26CAIJCEQhS+uVokCYrz8e9OhQCaZ2j3TOqfgdLBGIg9Yd2zOBODNzIJy7LlKXFBWB9FjupOJ3MEYgDlo3bHsD2Bjeh9NTBFME0uOq0ohxe9c3VZMXB/CzGV1dSijk7A2gEoNqkypGyo8a92GnCCTduXrXN4YlAnHp9NU+VYyUHzcjBPIAMQTi0gmBtCP2368ilwnh0dGyx4xNNgikvdypYqT8uBnRQeggLmcs+xSxU36s4H8YIxAE4nLGsk8RO+XHCh6BPIaLJZZLJ/Yg7YixB2nGsPcmrjnAdw5SM3/Kj5sbSyyWWC5nLPsUsVN+rOBZYrHEcgnj2qeInfLjxk8HoYO4nLHsU8RO+bGCp4PQQVzCuPYpYqf8uPHTQeggLmcs+xSxU36s4OkgdBCXMK59itgpP278s3aQlgckY1hyH8Sl01f7VDFSftyMEAhLLJczln2K2Ck/VvATL7HoIA8qyY3C2+A4HV8VCh2EDqJypcouNfOn/LhJIBAE4nLGsk8RO+XHCp4lFlexXMK49ilip/y48dNB6CAuZyz7FLFTfqzg6SB0EJcwrn2K2Ck/bvx0EDqIyxnLPkXslB8reDoIHcQljGufInbKjxs/HYQO4nLGsk8RO+XHCp4OQgdxCePap4id8uPGTwehg7icsexTxE75sYKng9BBXMK49ilip/y48dNBnrCDlJCv/BawS6r39ilip/y4uYwQSO8xY1g6D79dTVglyfRvZbjkKvap39dQ8nXqpebSm6y34ug9ZgxLB/CrBaKAqJJgpJ36jdlYUc1kFZxbHj1HIG8IJH/+4JiZC2me/VAnIQTysdItooxhqRZv1J5Amd1mFpDaPUoOsaKagCgYt5CVDtKpgxzAKsQxOXGZuTMBKXk6/tQkEciTXsU6wlbeLlTJcKWdO+siEJZY1fwsIvkuXDGqHiB4YtmLlaWVe4UNgSCQZhoqy4HmQRocOHuOz8MgEATSQL2PpxahlOOXwV3l6BJFGOVwu8b7rBAIAokJZEVHCASBrMjrWE4IBIHEyLSiIwSCQFbkdSwnBIJAYmRa0RECQSAr8jqWEwJBIDEyregIgSCQFXkdywmBIJAYmVZ0hEAQyIq8juWEQBBIjEwrOkIgCCTG69me7j2exTqeEatJFIEgkBrefDhn9qd5S7C1T/QiEATSJBCFQE0DBE+uEYmSH28UakWKYekAfvVXTd5DoSSsQXedlfsRCyVHp15qpkpXdt+OPBu795gxLB3ARwlEAfOsIKP+7nSSWFHNZBV8EYgA6giBKMUTQh9qopILgbAHsYm6gkDUpRYCQSC2QM66lu1w0AlKF0EgCMSip9I9yuz8t+U1b6y8F49APuKu1FbB7F41Y5PNzJt0BUQn/rw0/vd41umUzXqsqGaiCs4tZL0VTu8xY1g6BDsjgbrWVuungOjEr45bY5fAJlZUMwEFZwQigJoggTDMT5NRhHFiPGwT2IzKF4E8qLgzAydI4JBvFGGcGBFIDVovL71FGeMOAqkr8OezEpNHrKhmSr3Jyh7kDYH0HmQUYUx+vZojEA+13qKMcYcO4hX2njUC8XBEIB5eN61js0AgljMXCOQMoY9/RyAeXgiEX5j6woGWS8uxyZUlVkDJ7EFsEOkgNmRfT4jNAoFYzlywxDpDiCXW629jlLaYOhDIVySdjq/WofdszmVeLvNymVdV45tdb1HGJldnRkosIxwcY0k6g1baJrAZlW9vstJB6CB0EHNi6S3K2GRDBzEre8ecDuLhiEA8vLgPwn0Q7oO4mom1SXfgCns6iAcaHcTDiw5CB6GDuJqhg3AfpPZ352PcYZPuyva2PUssD0eWWB5eLLFYYrHEcjUTa5PuwBX2dBAPNKWDOKubz6PHuOMEkSCBA2MsSWfQStsENqPyVcja8uh57Z10h5sI5A5xW0Cs1MLN0xCIh6YiypbaxiYbJ4gECRwYY0k6g1baJrAZla9CVjqIQIwECYRhfpqMIowT42GbwGZUvgjkQcXpIDVy+HoOAvFwVETpcNPdg8jvLjlBJEjgwDhqRnVipIPUoKV9OM7h5ucoYlx1gogNKmK6kkCe/ePVDk+U8iodpPYuevkF5LNDqcerDyfxqwVSEi0ieXSkN49nwN77+xk2SkFG5auQ1eGJgqEypuKn1kapxxICqQXo6vOUgigCuTruMp68XjeCGy0QWfCyYejTNgaGr6ZnM7Prb5S9ivOM+SridnEdKRArH7VwCllXnGncwt+ydwqi7LsSMTk+HI6ofkcJxKnF9EusA+wZSaMSwd3nKRORM3arrU0occARAqmawJ3Z4az9VwUgADrr2lwI/aWGYLPk26ueBberBVKdyzMIZASgCvnPbGrEcfi8mkC3cul5hfCq/IowSh1qLxlPfZn3c9GuAvWM+MrfW8QxWiTNpBIA6lnLQwxNwjhyeJYO8h7znuAKtX1o0oNcV+abELaCoZKTw01lzCobJ4hRe5B7iZW1+nHXtPxW+cijEKsc1a1cCL6Qqhw9co3MtkIOTnd0uGkM7Zk6QcwmEC9TrGdCgA4yUzWIZToEEMh0JSGgmRBAIDNVg1imQwCBTFcSApoJAQQyUzWIZToEEMh0JSGgmRBAIDNVg1imQwCBTFcSApoJAQQyUzWIZToEEMh0JSGgmRBAIDNVg1imQwCBTFcSApoJgSUForz62vNp1pkKTCxtCJx9u6r6DcC2sL6e7TzNO8uroGkM8DcfAle9l3KaOQI5hQiDAQg4vOwanhuIsnbsGjDOl0dgmu5RkHYFUs5R9iLLV5EEuyFQw8mpgmEv0q0c2zvu+SWVKnBr1VpE8v3dO+FVg3MSCLwh0ONjFxFwawVyDM6eJFKGrZ1Mc0n3VhVaBfJeKOVrG2fXt7dmAsn/RODoGOU/pr53lhIItQeBJRFAIEuWlaRSCCCQFJL4WRIBBLJkWUkqhQACSSGJnyURQCBLlpWkUgggkBSS+FkSAQSyZFlJKoUAAkkhiZ8lEUAgS5aVpFII/Au71DkUtMBKFAAAAABJRU5ErkJggg==;" vertex="1" parent="1">
          <mxGeometry x="505" y="223" width="34" height="34" as="geometry" />
        </mxCell>
        <mxCell id="S_kCAmrRLUKjRK4tz0ea-17" value="" style="shape=image;verticalLabelPosition=bottom;labelBackgroundColor=default;verticalAlign=top;aspect=fixed;imageAspect=0;image=data:image/png,iVBORw0KGgoAAAANSUhEUgAAAEsAAABACAYAAABSiYopAAAAAXNSR0IArs4c6QAAA3dJREFUeF7tnG162yAQhOXj9BRpj9Db9F+Tk7U5WZJJMn7GKxZYCywswy87wSt4meVjAZ2WWPq5LMtf+Qm+31v6/13g12VZ8Jnfi/U4FXN8ZXg2kCp/djfZXr7rmC1wCVYOUnWLDIjM84gstBysfx8SVaOAA2NI9wyKbYe62W4F/3OBpWDRAEER0hEAeSK3HpQEloL1JhYB6NeAbtSjSEVgFpa6XlWn16PUO9q0XnXBQGEp2UdSlG0bAINomOBZn12QwlL3K42SOzb+TR6twM7CIRRV1SO6X6oFtEv6VBdhTVWtca3UBVhTVb5nq7pOFlaPvorzNawpsR5DQgPdQ1Ih/QCcC3qNa2BXAWr+PMo0fmZLc+qKvxVW6+mCndxi4MDDn2QZNTqwFSxWqhYWpZmrKPN4NlXepfUpXHdPtyWfPyhoFJbSTgHT/5dAIK83VaEL7z2V2QSLHTSDgBYYVVOqJKGm1EdQtWpv2U9ZW5th5YDVwoINFkQVOBIoLeNVbqjke0VQR1AU69lEWTSWmx5c6x495nvXlqULrNzomOuftBIpt7y2kq1+N2EFSE5YR4DFoNtIoexhlRVo8JtlnbACqDfD0v1EzOTxvcVoCDujbbltguVNRFvAOtzUgTu5CLUgUWUTVoVv16wF56RUlIUhP7eeS8FK9U+eG+7Zl23qs6zYauJXFpantFwUYq+oalNYgFcK1KXgpEIxFlYp4lrRS2zO0hxWSV2eG3LGzkChwqoNPW+mUTDQHJaqK9V3eW6nkAGM0Vf9vJf7dYln2agpH6Jh5dxoaA9iaEOXQtO9VdU0UmpBQQU8tqPQuP1Vs9uTgn0LKN4zmrmh9ivqLrlws6eWUY8RNIHlgdIW4myff4PCAMtb/8Fm6Lj1DSTXFNbeHXBvXk1g9S7kKPYnrEBLTFgTVoBAIOtU1oQVIBDIOpU1YQUIBLJSWV2PSQbKM2xW90wpSjzS6ZURCGZhHX3pEm2A1dHu0hnR6AOOlH91aUADXCOduNsbuo3iPqcuOk1X/GqmVXwtdYVuqsu5zzQvZ66d3e4JnCO789rvJSwXlDev0hHgkVwyC8qDldqaGmFLqufoaDdYkiKpuVujhTwSNG7Z6cE81DX0EgyF80ivVym+7KN2Ldjr2klP16q1XYREQ7WwmJ/3/uypv9qCjZCPe5bh9+q8Aw6NeIey4EkiAAAAAElFTkSuQmCC;" vertex="1" parent="1">
          <mxGeometry x="572.4200000000001" y="225" width="35.16" height="30" as="geometry" />
        </mxCell>
        <mxCell id="S_kCAmrRLUKjRK4tz0ea-18" value="" style="shape=image;verticalLabelPosition=bottom;labelBackgroundColor=default;verticalAlign=top;aspect=fixed;imageAspect=0;image=data:image/png,iVBORw0KGgoAAAANSUhEUgAAADAAAAAwCAYAAABXAvmHAAAAAXNSR0IArs4c6QAAAtxJREFUaEPdWe1VwzAMjDNM2i1oJwMmo2zRZpiYp746T1El62wnhMKfAvXHnU6WJTl0L/4TXhx/V0XgeDyeEvFpmubfa43R9/3ler1eaubDBAh0jPE9xtgMOAc0hHCJMX6P4/iBEHIJDMNAC70ji20w5tMjYhLwLE6WIsBkrVbgIYQ3S1na53a7na09TALDMEQ+iRYKIXzS/2r9FSFqKd73/VnbVyVwOBy+hEVcKRFwJWMkEUuJJwJyosW8BEztWHLjaZq+2PwnQ2oEuOu4ln9scvIOmySBzpMGHcdxgXnxhzdYguDjS5VKZwyZx11ajl8QEL7vWj+3cM5tuGt4UYbWyY2XCszuI6XSAO1BgHBwbLsQ4K6HKECgeVjnbjQTKJWVFi1VQIkqXNisy1p7zQTEAXb9v5QAmpJYrrsrAe1SEinInGtZLmUZ+FcUEGnJk7rI5bkbAen3iIt0XeeRnL9vUoCDs4ChZ8sLIpsogOQ4f5ZAymUeufy9JtBKQ8+yyQge0dUU8Aod6b9IRomMWY2ALHQ0N5KhULkD7oURKabU2eodtAoBLZ5TlcY6E7x2XgBRiiT1CJUGAzgKVcRqsvCiDMzdxqlktcrVZgW8Q5bM6eVH6fDT+BQAkL5QMwEPGBpNkNCrjflzBEoqskc6zftT5TcxmsNbeTu3Kno38DnNClTE6kXltDsBmf8/AN3jOTuQvG9q1hSbKIAuilxkWja5uQIoAeVALYIG0iYp2csLz2pNLCt/K/SVtmHSOjUEuPJQVwKxJHo3SANsRqAUUOn4WgVyIXzRFyq1DFKRae4nQrLbAcnV1M3NXbIOkstIIug8r1/7/9rr1oVV2j6vTdqMpJAyV/WpSX2hybQAXX9tAZ6eb7XXUKvQyb5S5qqo9BzaAjilIPSZe+Sjqs8qdP7vM6sWNXLPoa1KsKTw/hqKvoS6CljAeGnYAp5CcJqPgub7VRNoAb3m3Jcn8AMdQupeHoAbUwAAAABJRU5ErkJggg==;" vertex="1" parent="1">
          <mxGeometry x="637" y="220" width="40" height="40" as="geometry" />
        </mxCell>
        <mxCell id="S_kCAmrRLUKjRK4tz0ea-19" value="" style="shape=image;verticalLabelPosition=bottom;labelBackgroundColor=default;verticalAlign=top;aspect=fixed;imageAspect=0;image=data:image/png,iVBORw0KGgoAAAANSUhEUgAAAEAAAABACAYAAACqaXHeAAAAAXNSR0IArs4c6QAAAYZJREFUeF7tmWGqwkAMhNOb6cnEk+nN1KUtQqHuTNaGlEzh8f5kd5Mvk24HJyv+TMXrNwGQAooT0AgUF4BeghoBjUBxAswIXMzsZmbtf+bn/snxufx182QAPE5Q/FpwA3DtVm9G3QIvZMNEMVBzoaClKAHYdJeBFyGMbYOg/KCgHQUwawUggIAU4BlRRsYuwgGdX49w5ScARId0DRKwMoRC6oaClmrKfwo3E9QgZH+aD1gNUTdXRgFncYOt6GaEGojuwwAoPwK6Bbp6yhUAqRsKkhmaCbg+NQNF4cpPCiA65CJM7D8a6spPCiCwuwgT+4+GuvIbUcBowkevh2qDgnauwaMLGN0fqg0KkhucCZzFDMkNyg3OVli/DSJvUeYlKDu8IcrAQ5oxGhP+ISQAoy3783opwDOijIxdhP/c5V/bufITAKJDugYJWBlCIXVDQXKDXze4OsIMHd7L4TA3mLlod27MCLgPybxQADJ3JyI3KSCCcuYzpIDM3YnITQqIoJz5jPIKeANRokxB1FqeOgAAAABJRU5ErkJggg==;" vertex="1" parent="1">
          <mxGeometry x="740" y="211" width="42" height="42" as="geometry" />
        </mxCell>
        <mxCell id="S_kCAmrRLUKjRK4tz0ea-20" value="参数化模板" style="text;html=1;align=center;verticalAlign=middle;whiteSpace=wrap;rounded=0;" vertex="1" parent="1">
          <mxGeometry x="490" y="251" width="65" height="30" as="geometry" />
        </mxCell>
        <mxCell id="S_kCAmrRLUKjRK4tz0ea-21" value="缺陷注入" style="text;html=1;align=center;verticalAlign=middle;whiteSpace=wrap;rounded=0;" vertex="1" parent="1">
          <mxGeometry x="557.5" y="251" width="65" height="30" as="geometry" />
        </mxCell>
        <mxCell id="S_kCAmrRLUKjRK4tz0ea-22" value="环境控制" style="text;html=1;align=center;verticalAlign=middle;whiteSpace=wrap;rounded=0;" vertex="1" parent="1">
          <mxGeometry x="627" y="251" width="65" height="30" as="geometry" />
        </mxCell>
        <mxCell id="S_kCAmrRLUKjRK4tz0ea-37" style="edgeStyle=orthogonalEdgeStyle;rounded=0;orthogonalLoop=1;jettySize=auto;html=1;exitX=0.5;exitY=1;exitDx=0;exitDy=0;entryX=0.5;entryY=0;entryDx=0;entryDy=0;" edge="1" parent="1" source="S_kCAmrRLUKjRK4tz0ea-23" target="S_kCAmrRLUKjRK4tz0ea-30">
          <mxGeometry relative="1" as="geometry">
            <Array as="points">
              <mxPoint x="761" y="280" />
              <mxPoint x="260" y="280" />
            </Array>
          </mxGeometry>
        </mxCell>
        <mxCell id="S_kCAmrRLUKjRK4tz0ea-71" style="edgeStyle=orthogonalEdgeStyle;rounded=0;orthogonalLoop=1;jettySize=auto;html=1;exitX=0.5;exitY=1;exitDx=0;exitDy=0;entryX=0.5;entryY=0;entryDx=0;entryDy=0;" edge="1" parent="1" source="S_kCAmrRLUKjRK4tz0ea-23" target="S_kCAmrRLUKjRK4tz0ea-42">
          <mxGeometry relative="1" as="geometry" />
        </mxCell>
        <mxCell id="S_kCAmrRLUKjRK4tz0ea-23" value="性能缺陷库" style="text;html=1;align=center;verticalAlign=middle;whiteSpace=wrap;rounded=0;" vertex="1" parent="1">
          <mxGeometry x="728.5" y="243" width="65" height="27" as="geometry" />
        </mxCell>
        <mxCell id="S_kCAmrRLUKjRK4tz0ea-33" style="edgeStyle=orthogonalEdgeStyle;rounded=0;orthogonalLoop=1;jettySize=auto;html=1;entryX=0.5;entryY=0;entryDx=0;entryDy=0;" edge="1" parent="1" source="S_kCAmrRLUKjRK4tz0ea-30" target="S_kCAmrRLUKjRK4tz0ea-32">
          <mxGeometry relative="1" as="geometry" />
        </mxCell>
        <mxCell id="S_kCAmrRLUKjRK4tz0ea-30" value="(5) 性能模型构建" style="rounded=0;whiteSpace=wrap;html=1;" vertex="1" parent="1">
          <mxGeometry x="200" y="324" width="120" height="49" as="geometry" />
        </mxCell>
        <mxCell id="S_kCAmrRLUKjRK4tz0ea-54" style="edgeStyle=orthogonalEdgeStyle;rounded=0;orthogonalLoop=1;jettySize=auto;html=1;exitX=1;exitY=0.5;exitDx=0;exitDy=0;entryX=0;entryY=0.5;entryDx=0;entryDy=0;" edge="1" parent="1">
          <mxGeometry relative="1" as="geometry">
            <mxPoint x="169" y="411" as="sourcePoint" />
            <mxPoint x="229" y="411" as="targetPoint" />
          </mxGeometry>
        </mxCell>
        <mxCell id="S_kCAmrRLUKjRK4tz0ea-32" value="(6)&amp;nbsp;&lt;span style=&quot;color: rgba(0, 0, 0, 0); font-family: monospace; font-size: 0px; text-align: start; text-wrap-mode: nowrap;&quot;&gt;%3CmxGraphModel%3E%3Croot%3E%3CmxCell%20id%3D%220%22%2F%3E%3CmxCell%20id%3D%221%22%20parent%3D%220%22%2F%3E%3CmxCell%20id%3D%222%22%20value%3D%22(5)%20%E6%80%A7%E8%83%BD%E6%A8%A1%E5%9E%8B%E6%9E%84%E5%BB%BA%22%20style%3D%22rounded%3D0%3BwhiteSpace%3Dwrap%3Bhtml%3D1%3B%22%20vertex%3D%221%22%20parent%3D%221%22%3E%3CmxGeometry%20x%3D%22670%22%20y%3D%22340%22%20width%3D%22120%22%20height%3D%2260%22%20as%3D%22geometry%22%2F%3E%3C%2FmxCell%3E%3C%2Froot%3E%3C%2FmxGraphModel%3E&lt;/span&gt;&lt;span style=&quot;color: rgba(0, 0, 0, 0); font-family: monospace; font-size: 0px; text-align: start; text-wrap-mode: nowrap;&quot;&gt;%3CmxGraphModel%3E%3Croot%3E%3CmxCell%20id%3D%220%22%2F%3E%3CmxCell%20id%3D%221%22%20parent%3D%220%22%2F%3E%3CmxCell%20id%3D%222%22%20value%3D%22(5)%20%E6%80%A7%E8%83%BD%E6%A8%A1%E5%9E%8B%E6%9E%84%E5%BB%BA%22%20style%3D%22rounded%3D0%3BwhiteSpace%3Dwrap%3Bhtml%3D1%3B%22%20vertex%3D%221%22%20parent%3D%221%22%3E%3CmxGeometry%20x%3D%22670%22%20y%3D%22340%22%20width%3D%22120%22%20height%3D%2260%22%20as%3D%22geometry%22%2F%3E%3C%2FmxCell%3E%3C%2Froot%3E%3C%2FmxGraphModel%3E&lt;/span&gt;蜕变关系定义" style="rounded=0;whiteSpace=wrap;html=1;" vertex="1" parent="1">
          <mxGeometry x="70" y="384" width="100" height="60" as="geometry" />
        </mxCell>
        <mxCell id="S_kCAmrRLUKjRK4tz0ea-112" style="edgeStyle=orthogonalEdgeStyle;rounded=0;orthogonalLoop=1;jettySize=auto;html=1;exitX=0.5;exitY=1;exitDx=0;exitDy=0;entryX=0.5;entryY=0;entryDx=0;entryDy=0;" edge="1" parent="1" source="S_kCAmrRLUKjRK4tz0ea-70" target="S_kCAmrRLUKjRK4tz0ea-84">
          <mxGeometry relative="1" as="geometry" />
        </mxCell>
        <mxCell id="S_kCAmrRLUKjRK4tz0ea-70" value="" style="rounded=1;whiteSpace=wrap;html=1;" vertex="1" parent="1">
          <mxGeometry x="576" y="311" width="130" height="219" as="geometry" />
        </mxCell>
        <mxCell id="S_kCAmrRLUKjRK4tz0ea-41" value="" style="shape=image;verticalLabelPosition=bottom;labelBackgroundColor=default;verticalAlign=top;aspect=fixed;imageAspect=0;image=data:image/png,iVBORw0KGgoAAAANSUhEUgAAADAAAAAwCAYAAABXAvmHAAAAAXNSR0IArs4c6QAAAdlJREFUaEPtWVtuAyEMJPfxIZqTtTlZ0zv4Pq0cwco4mFfsFUrZn0pdMJ4Zv7JcAnsA4COE8BlCoL+rPjdE/ErOXQSA31W95n4h4uH32wO4L6JIFtK9CtwR8boCAAD45nm5AZytyhIKUIlGxKmccgMAAFSPKVeajgEAleishpOSPTZcAMSDqenRc62BEGuP9b02zAEUHFJBKGtvEXgiIKVVkQhTAIpDNQBZCUxhNGLHDECclcgh+WjMUY5kLPMa3gvCBMCo8zFB5WylJbEMpUxRKwClQe/JoSRNiV3OvhgiZZjR62MSsAJA88hI+DTZZ2XUX4Hew5R1RaVOzYFaaPBe0Ftie52PhNgOczUnY8flIT7Cvn8fUJR4HBwrVfpZ+liqJW4h1NRubpLEpQlUm2OYQmqVEkRU5yk3ACVQHv/bADxYHbG5FRBt/2lAG2GzsVYruXZ9oNKALHBsAHwAK34XYt9PLRiXNn74d0/WK+xCyMPrls1dhVoMeb/fCngz3LJvqgAbmVvnzrwvTqXWAHYnrkizO3FvJ/a6xfTPgZnMfHWPaRK/6szM/g1ghjXLPf9WASKxefdlyXTF1tRF90m+jR/Te9E9bvmkHTUAnnOOBTwKaRo3jtD+AxY7ek/5iii1AAAAAElFTkSuQmCC;" vertex="1" parent="1">
          <mxGeometry x="626.25" y="321" width="29.5" height="29.5" as="geometry" />
        </mxCell>
        <mxCell id="S_kCAmrRLUKjRK4tz0ea-62" style="edgeStyle=orthogonalEdgeStyle;rounded=0;orthogonalLoop=1;jettySize=auto;html=1;exitX=0;exitY=0.5;exitDx=0;exitDy=0;entryX=1;entryY=0.5;entryDx=0;entryDy=0;" edge="1" parent="1" source="S_kCAmrRLUKjRK4tz0ea-42" target="S_kCAmrRLUKjRK4tz0ea-41">
          <mxGeometry relative="1" as="geometry">
            <mxPoint x="660" y="340" as="targetPoint" />
            <Array as="points">
              <mxPoint x="741" y="336" />
            </Array>
          </mxGeometry>
        </mxCell>
        <mxCell id="S_kCAmrRLUKjRK4tz0ea-42" value="" style="shape=image;verticalLabelPosition=bottom;labelBackgroundColor=default;verticalAlign=top;aspect=fixed;imageAspect=0;image=data:image/png,iVBORw0KGgoAAAANSUhEUgAAADAAAAAwCAYAAABXAvmHAAAAAXNSR0IArs4c6QAAActJREFUaEPtWmuSwyAItvfhENuT7fZk20Nwn3boSMYYEyBoTDr6qx2L8vEU6C3sWADwE0L4jaT0ufV60AWI+JdfdLPeDAD/IYQjmC6x9shBmAAAAEmAJW/FXuv3T0S882FqACdhnvm+I+KTvngA0AGk0s9BrVbib6nZTlqwAHhlTE5SaMU8nxtBkO/x8gNARDX4GgABYCZAvl/NxNoBNZjTnCECyGL7wravACCN77NQRRK6AoCijSWOtLmvMQPPbzQmNAB4JCzRDg0MJ5ZsRNg/3IRW3jAlNlVvqh4ALHXDIu/kSAcAqxNf3oScPrsgP9yEBoBMAkMDkhMbnFayrmJeaK6Byv0idT0ylZQKCUvPbUviErWQ9n62CqqaALjd6O3a9TEhSaTe/eY+4GVQoh8AJCeXJOjdHxr4Bg3kcb5nc5emNZ8UYMkDOQBVKVjB9kv5ZZrUWADQQWmL28ubh94OIKbzms+FvQBmczK1BpIeac852eKRZwYQNcHjziMGfjzCKo6zdgHYq/sWdF8FoFuc92gm1UCXOO9hPk9kZ4rzKa7NhDmbUlaua73CnYHIS0zeXIxZT/aXAuZztflbnBNHEER8RJyXNLVpQm9jDQlPo5uexgAAAABJRU5ErkJggg==;" vertex="1" parent="1">
          <mxGeometry x="743" y="318" width="36" height="36" as="geometry" />
        </mxCell>
        <mxCell id="S_kCAmrRLUKjRK4tz0ea-47" style="edgeStyle=orthogonalEdgeStyle;rounded=0;orthogonalLoop=1;jettySize=auto;html=1;exitX=1;exitY=0.5;exitDx=0;exitDy=0;entryX=0;entryY=0.5;entryDx=0;entryDy=0;" edge="1" parent="1">
          <mxGeometry relative="1" as="geometry">
            <mxPoint x="8" y="414" as="sourcePoint" />
            <mxPoint x="71" y="414" as="targetPoint" />
          </mxGeometry>
        </mxCell>
        <mxCell id="S_kCAmrRLUKjRK4tz0ea-43" value="" style="shape=image;verticalLabelPosition=bottom;labelBackgroundColor=default;verticalAlign=top;aspect=fixed;imageAspect=0;image=data:image/png,iVBORw0KGgoAAAANSUhEUgAAADAAAAAwCAYAAABXAvmHAAAAAXNSR0IArs4c6QAAAl9JREFUaEPtmu1tAyEMhi/7sEOTydpM1nQH9mnrCBDH+RObRpUufxKpd+AHvwbb9LIt+qSUPsvQ123b7jnnjxVTXaIHTSmBoe/EuOEgYQApJVhpMBy+pU8YiBvAaHgPdv+FfeScHxIt93cXgCAXmBeMkzzi8sYUgMJwML4ZZn3e4hETgFIusOpg/EEaK0BUAF7D+xWNhhABoiesMFHjkgBl1ethRMkSdpGbRbPjs16QA0CkXLRgBeJN2LEgpr7GE30H4F0NrcHUczPzjwDfjBGu/doCJ4HknJvd7Qej+bYtlmc27+nJeOBaxy5z1fRkfOVWn5MAuMMozCNI3DUDCW+oAfqBMHmhgaWVC7NhtN2NUEYYQLXV7A2tziMB4ExwJ2aS4WVFeunCnON5ZPcADKycfJfIdSevtl7YHY5hHjCmAE+I8g7EiabQQZPAcIAJEE1MkzG0DCAIhEy9B+nFxAC3lIb4qJUaWjMgyV5cEEtaUEK0HUQar2wcfwcgyMp8VrwSAFu1E6CT3NxBptEs4/bTA6cHTglNtNiXpxKYV4hJXxLEkZPOjoXdN6i30ZoWm9rgER4Q+lNHgLJ/h7RVvABSToW2VQwVlyiFWQBlV3A3P9ZarJdx1D2XqpBPKY3elIoWqWpDaweuuctd1jUI6ppICyDJpUxEpuDL2uuDYYcutrL7LcpVBDCWjrsJsVakUudiqVntUgMYghxtqyjfVxs+BTDrjSi5YKe+yQNIwa0JdOmqVdQ5l0S6AIweGe0wyyXcA/2Ayu0QXgkx3BUDnEv/7T97MPHxvPD23mZSi/YDqq5nT41QxyIAAAAASUVORK5CYII=;" vertex="1" parent="1">
          <mxGeometry x="-28.5" y="397" width="37" height="37" as="geometry" />
        </mxCell>
        <mxCell id="S_kCAmrRLUKjRK4tz0ea-44" value="深度学习系统" style="text;html=1;align=center;verticalAlign=middle;whiteSpace=wrap;rounded=0;" vertex="1" parent="1">
          <mxGeometry x="-50" y="441" width="80" height="26" as="geometry" />
        </mxCell>
        <mxCell id="S_kCAmrRLUKjRK4tz0ea-45" value="" style="shape=image;verticalLabelPosition=bottom;labelBackgroundColor=default;verticalAlign=top;aspect=fixed;imageAspect=0;image=data:image/png,iVBORw0KGgoAAAANSUhEUgAAADAAAAAwCAYAAABXAvmHAAAAAXNSR0IArs4c6QAAAT9JREFUaEPtWUESgjAMDD/Tl6kv058pO6NMicB0IYFUkwuXkO5mmzaEThq3rnH88pMEriJyCarMrccFfINpBSKD/4AekdAEnkEzr2ENuJcIRKuPMrlJ4IidFlaBu4iciow8RASFimdpIQkAOAhoO7dEAHeOVgAEtIVUgKmlJMBky8OXVsADhFXMqovMajGPOP9BIHsh471DF3EqkAo00MwxIpnUgG59GQC1vm7t9FzrWwuM8XNpp0FAt74MqFpfKJDtNLKV90Dtnqn0MzmFKtdycTMhgEIuv19dkPZBR/PP9yKbCew5N3U7RqdGIB4qfE2h+yN8swIAOiWtNQHcA3qohTVMCFiDZeIlASZbHr6pgEdWmZipAJMtD19aAQ8QVjFnJ3N7tgtrySz+Zv3cts3+6F6blcPei/bVRSeieQIv0uBkMeVN37gAAAAASUVORK5CYII=;" vertex="1" parent="1">
          <mxGeometry x="-30" y="212" width="40" height="40" as="geometry" />
        </mxCell>
        <mxCell id="S_kCAmrRLUKjRK4tz0ea-46" style="edgeStyle=orthogonalEdgeStyle;rounded=0;orthogonalLoop=1;jettySize=auto;html=1;exitX=1;exitY=0.5;exitDx=0;exitDy=0;entryX=0.01;entryY=0.4;entryDx=0;entryDy=0;entryPerimeter=0;" edge="1" parent="1" source="S_kCAmrRLUKjRK4tz0ea-45">
          <mxGeometry relative="1" as="geometry">
            <mxPoint x="71" y="232" as="targetPoint" />
          </mxGeometry>
        </mxCell>
        <mxCell id="S_kCAmrRLUKjRK4tz0ea-48" value="初始测试用例集" style="text;html=1;align=center;verticalAlign=middle;whiteSpace=wrap;rounded=0;" vertex="1" parent="1">
          <mxGeometry x="728.5" y="360" width="65" height="30" as="geometry" />
        </mxCell>
        <mxCell id="S_kCAmrRLUKjRK4tz0ea-76" style="edgeStyle=orthogonalEdgeStyle;rounded=0;orthogonalLoop=1;jettySize=auto;html=1;exitX=0.5;exitY=1;exitDx=0;exitDy=0;entryX=0.5;entryY=0;entryDx=0;entryDy=0;" edge="1" parent="1">
          <mxGeometry relative="1" as="geometry">
            <mxPoint x="641" y="367" as="sourcePoint" />
            <mxPoint x="642" y="390" as="targetPoint" />
          </mxGeometry>
        </mxCell>
        <mxCell id="S_kCAmrRLUKjRK4tz0ea-49" value="原始测试用例" style="text;html=1;align=center;verticalAlign=middle;whiteSpace=wrap;rounded=0;" vertex="1" parent="1">
          <mxGeometry x="600.75" y="350.5" width="82.5" height="19.5" as="geometry" />
        </mxCell>
        <mxCell id="S_kCAmrRLUKjRK4tz0ea-56" value="" style="edgeStyle=orthogonalEdgeStyle;rounded=0;orthogonalLoop=1;jettySize=auto;html=1;" edge="1" parent="1" source="S_kCAmrRLUKjRK4tz0ea-50" target="S_kCAmrRLUKjRK4tz0ea-55">
          <mxGeometry relative="1" as="geometry" />
        </mxCell>
        <mxCell id="S_kCAmrRLUKjRK4tz0ea-50" value="" style="shape=image;verticalLabelPosition=bottom;labelBackgroundColor=default;verticalAlign=top;aspect=fixed;imageAspect=0;image=data:image/png,iVBORw0KGgoAAAANSUhEUgAAADAAAAAwCAYAAABXAvmHAAAAAXNSR0IArs4c6QAAAgBJREFUaEPtWu1txCAMJfuwQ5vJ2kzWdAf2aWuEkWMgAmOaqnJ+3El3wcYfGL8Hm0uP9/7dOffinHvF3wTfx8/4M4Rw1sZ670H2W/pPqgdkf4YQYL5ugw/v/cfkxPl8d25Emjzo0XoOMGJLnkevgPCq9zq0XjwaQojOIRH+6pAx+soBBlDvR6tGpZBJUlk5Csz74CDQI3IUc/gJBqBnIHd36eRTKkIUME2yM5jSKSfxlH/CgGJ9jDqNZo0ZwBZqTwpZBCyFWouOlctWFbIUshSyFBK2EbWWxTYy28hGGyGGX2gKOd7Dj8pudZ2t/WFUfg1bFHggvSTp1QEUUVDTwgOgIkJPoQFUT8QDtAETyiyGFT3/AtgKSnfExIDCKKycMaQJWCrwdVoPx60QjRm2ANbRbWqkiEt1ZMyOei4GzLjjqbH/y4AUXnCmNMRNUouUQJStogMXMTJmUqE0g35/ERNqRSuVC4pGuQLhPHfOzEXSSWgF5T1jjcZKUdlrpHowQ7Dkx40ss2kKrUQPK6FBbGWaUrsX6jFgGSbWaObMgJ711wL1FoGneSGLgEWgZwUvxsRWRnuCYGX0r3KjVkZviC3Keqg3c5oH3XSi9ISGVqep8+jaQXeN2JKwZqNXDSQ6OF4/VhBbkTrkVxYWMIAxkplWUbpuc3sPgpBaMyzg5brNNxZoikUd3QDIAAAAAElFTkSuQmCC;" vertex="1" parent="1">
          <mxGeometry x="231" y="396" width="31" height="31" as="geometry" />
        </mxCell>
        <mxCell id="S_kCAmrRLUKjRK4tz0ea-52" value="蜕变关系集合" style="text;html=1;align=center;verticalAlign=middle;whiteSpace=wrap;rounded=0;" vertex="1" parent="1">
          <mxGeometry x="204.75" y="423" width="82.5" height="32" as="geometry" />
        </mxCell>
        <mxCell id="S_kCAmrRLUKjRK4tz0ea-72" style="edgeStyle=orthogonalEdgeStyle;rounded=0;orthogonalLoop=1;jettySize=auto;html=1;exitX=1;exitY=0.5;exitDx=0;exitDy=0;" edge="1" parent="1" source="S_kCAmrRLUKjRK4tz0ea-55">
          <mxGeometry relative="1" as="geometry">
            <mxPoint x="510" y="411" as="targetPoint" />
          </mxGeometry>
        </mxCell>
        <mxCell id="S_kCAmrRLUKjRK4tz0ea-55" value="(7)&amp;nbsp;&lt;span style=&quot;color: rgba(0, 0, 0, 0); font-family: monospace; font-size: 0px; text-align: start; text-wrap-mode: nowrap;&quot;&gt;%3CmxGraphModel%3E%3Croot%3E%3CmxCell%20id%3D%220%22%2F%3E%3CmxCell%20id%3D%221%22%20parent%3D%220%22%2F%3E%3CmxCell%20id%3D%222%22%20value%3D%22(5)%20%E6%80%A7%E8%83%BD%E6%A8%A1%E5%9E%8B%E6%9E%84%E5%BB%BA%22%20style%3D%22rounded%3D0%3BwhiteSpace%3Dwrap%3Bhtml%3D1%3B%22%20vertex%3D%221%22%20parent%3D%221%22%3E%3CmxGeometry%20x%3D%22670%22%20y%3D%22340%22%20width%3D%22120%22%20height%3D%2260%22%20as%3D%22geometry%22%2F%3E%3C%2FmxCell%3E%3C%2Froot%3E%3C%2FmxGraphModel%3E&lt;/span&gt;&lt;span style=&quot;color: rgba(0, 0, 0, 0); font-family: monospace; font-size: 0px; text-align: start; text-wrap-mode: nowrap;&quot;&gt;%3CmxGraphModel%3E%3Croot%3E%3CmxCell%20id%3D%220%22%2F%3E%3CmxCell%20id%3D%221%22%20parent%3D%220%22%2F%3E%3CmxCell%20id%3D%222%22%20value%3D%22(5)%20%E6%80%A7%E8%83%BD%E6%A8%A1%E5%9E%8B%E6%9E%84%E5%BB%BA%22%20style%3D%22rounded%3D0%3BwhiteSpace%3Dwrap%3Bhtml%3D1%3B%22%20vertex%3D%221%22%20parent%3D%221%22%3E%3CmxGeometry%20x%3D%22670%22%20y%3D%22340%22%20width%3D%22120%22%20height%3D%2260%22%20as%3D%22geometry%22%2F%3E%3C%2FmxCell%3E%3C%2Froot%3E%3C%2FmxGraphModel%3E&lt;/span&gt;蜕变关系选择" style="rounded=0;whiteSpace=wrap;html=1;" vertex="1" parent="1">
          <mxGeometry x="346" y="381" width="100" height="60" as="geometry" />
        </mxCell>
        <mxCell id="S_kCAmrRLUKjRK4tz0ea-77" style="edgeStyle=orthogonalEdgeStyle;rounded=0;orthogonalLoop=1;jettySize=auto;html=1;exitX=0.5;exitY=1;exitDx=0;exitDy=0;entryX=0.5;entryY=0;entryDx=0;entryDy=0;" edge="1" parent="1">
          <mxGeometry relative="1" as="geometry">
            <mxPoint x="641" y="440" as="sourcePoint" />
            <mxPoint x="641" y="461.9999999999999" as="targetPoint" />
          </mxGeometry>
        </mxCell>
        <mxCell id="S_kCAmrRLUKjRK4tz0ea-58" value="蜕变关系" style="text;html=1;align=center;verticalAlign=middle;whiteSpace=wrap;rounded=0;" vertex="1" parent="1">
          <mxGeometry x="481.75" y="425" width="82.5" height="19" as="geometry" />
        </mxCell>
        <mxCell id="S_kCAmrRLUKjRK4tz0ea-83" style="edgeStyle=orthogonalEdgeStyle;rounded=0;orthogonalLoop=1;jettySize=auto;html=1;exitX=1;exitY=0.5;exitDx=0;exitDy=0;" edge="1" parent="1" source="S_kCAmrRLUKjRK4tz0ea-57" target="S_kCAmrRLUKjRK4tz0ea-78">
          <mxGeometry relative="1" as="geometry">
            <mxPoint x="556.25" y="411.25" as="sourcePoint" />
            <Array as="points">
              <mxPoint x="580" y="411" />
              <mxPoint x="580" y="411" />
            </Array>
          </mxGeometry>
        </mxCell>
        <mxCell id="S_kCAmrRLUKjRK4tz0ea-57" value="" style="shape=image;verticalLabelPosition=bottom;labelBackgroundColor=default;verticalAlign=top;aspect=fixed;imageAspect=0;image=data:image/png,iVBORw0KGgoAAAANSUhEUgAAADAAAAAwCAYAAABXAvmHAAAAAXNSR0IArs4c6QAAAXRJREFUaEPtWNsNwyAMJPuwQ9vJ2k7WdAcGqpBIlQfkOAyhqRwpf8bmfMacGczJv+Hk+zcKoDeDUQastVdjjP+bfs65hzTABoC11ju9Sx1nrr8558ZM26hZbwBPKQsIgM/OW5KhyNrLrDybAxAHWANYlajYP2JAHEABgPpVBtgDHu6YV1gnLtHDGfAbDwd5lN4B3lcXACxre/YKIJREN+0kZqC3djobgE3Xqg3gcO1UG4C4r7PSQwGUqMtp4suZBZD/wxlYbQhOZL8OAJ4ZBYDqFGWI7Sqsfe8z0LyEohfTnJU9BhLvS9RQjxhGDKSU7Ld7pAJkaqQmDHhlOU1MKQDfwDsAKD+pQDQDs4kp5XMxSYES2ns6zJrIigAwExMKwPiK2SL/4ud1FEABLB+b8TzAZkwZABlDCdIzgDLElqRYC7EB/w1A/6FeyAC7nLVv0kZzNA+7UajBJgNxF8rQTrU2H9VOVQDU2mGJHwVQkrWaa07PwAebAtBAJRHrgAAAAABJRU5ErkJggg==;" vertex="1" parent="1">
          <mxGeometry x="509.75" y="396" width="30.5" height="30.5" as="geometry" />
        </mxCell>
        <mxCell id="S_kCAmrRLUKjRK4tz0ea-66" value="" style="shape=image;verticalLabelPosition=bottom;labelBackgroundColor=default;verticalAlign=top;aspect=fixed;imageAspect=0;image=data:image/png,iVBORw0KGgoAAAANSUhEUgAAADAAAAAwCAYAAABXAvmHAAAAAXNSR0IArs4c6QAAAdlJREFUaEPtWVtuAyEMJPfxIZqTtTlZ0zv4Pq0cwco4mFfsFUrZn0pdMJ4Zv7JcAnsA4COE8BlCoL+rPjdE/ErOXQSA31W95n4h4uH32wO4L6JIFtK9CtwR8boCAAD45nm5AZytyhIKUIlGxKmccgMAAFSPKVeajgEAleishpOSPTZcAMSDqenRc62BEGuP9b02zAEUHFJBKGtvEXgiIKVVkQhTAIpDNQBZCUxhNGLHDECclcgh+WjMUY5kLPMa3gvCBMCo8zFB5WylJbEMpUxRKwClQe/JoSRNiV3OvhgiZZjR62MSsAJA88hI+DTZZ2XUX4Hew5R1RaVOzYFaaPBe0Ftie52PhNgOczUnY8flIT7Cvn8fUJR4HBwrVfpZ+liqJW4h1NRubpLEpQlUm2OYQmqVEkRU5yk3ACVQHv/bADxYHbG5FRBt/2lAG2GzsVYruXZ9oNKALHBsAHwAK34XYt9PLRiXNn74d0/WK+xCyMPrls1dhVoMeb/fCngz3LJvqgAbmVvnzrwvTqXWAHYnrkizO3FvJ/a6xfTPgZnMfHWPaRK/6szM/g1ghjXLPf9WASKxefdlyXTF1tRF90m+jR/Te9E9bvmkHTUAnnOOBTwKaRo3jtD+AxY7ek/5iii1AAAAAElFTkSuQmCC;" vertex="1" parent="1">
          <mxGeometry x="627" y="462" width="30" height="30" as="geometry" />
        </mxCell>
        <mxCell id="S_kCAmrRLUKjRK4tz0ea-67" value="衍生测试用例" style="text;html=1;align=center;verticalAlign=middle;whiteSpace=wrap;rounded=0;" vertex="1" parent="1">
          <mxGeometry x="599.75" y="493" width="82.5" height="20" as="geometry" />
        </mxCell>
        <mxCell id="S_kCAmrRLUKjRK4tz0ea-78" value="(8) 衍生测试用例生成&lt;span style=&quot;color: rgba(0, 0, 0, 0); font-family: monospace; font-size: 0px; text-align: start; text-wrap-mode: nowrap;&quot;&gt;%3CmxGraphModel%3E%3Croot%3E%3CmxCell%20id%3D%220%22%2F%3E%3CmxCell%20id%3D%221%22%20parent%3D%220%22%2F%3E%3CmxCell%20id%3D%222%22%20value%3D%22(5)%20%E6%80%A7%E8%83%BD%E6%A8%A1%E5%9E%8B%E6%9E%84%E5%BB%BA%22%20style%3D%22rounded%3D0%3BwhiteSpace%3Dwrap%3Bhtml%3D1%3B%22%20vertex%3D%221%22%20parent%3D%221%22%3E%3CmxGeometry%20x%3D%22670%22%20y%3D%22340%22%20width%3D%22120%22%20height%3D%2260%22%20as%3D%22geometry%22%2F%3E%3C%2FmxCell%3E%3C%2Froot%3E%3C%2FmxGraphModel%3E&lt;/span&gt;&lt;span style=&quot;color: rgba(0, 0, 0, 0); font-family: monospace; font-size: 0px; text-align: start; text-wrap-mode: nowrap;&quot;&gt;%3CmxGraphModel%3E%3Croot%3E%3CmxCell%20id%3D%220%22%2F%3E%3CmxCell%20id%3D%221%22%20parent%3D%220%22%2F%3E%3CmxCell%20id%3D%222%22%20value%3D%22(5)%20%E6%80%A7%E8%83%BD%E6%A8%A1%E5%9E%8B%E6%9E%84%E5%BB%BA%22%20style%3D%22rounded%3D0%3BwhiteSpace%3Dwrap%3Bhtml%3D1%3B%22%20vertex%3D%221%22%20parent%3D%221%22%3E%3CmxGeometry%20x%3D%22670%22%20y%3D%22340%22%20width%3D%22120%22%20height%3D%2260%22%20as%3D%22geometry%22%2F%3E%3C%2FmxCell%3E%3C%2Froot%3E%3C%2FmxGraphModel%3E衍生&lt;/span&gt;" style="rounded=0;whiteSpace=wrap;html=1;" vertex="1" parent="1">
          <mxGeometry x="591" y="390.5" width="100" height="49.5" as="geometry" />
        </mxCell>
        <mxCell id="S_kCAmrRLUKjRK4tz0ea-102" style="edgeStyle=orthogonalEdgeStyle;rounded=0;orthogonalLoop=1;jettySize=auto;html=1;exitX=0;exitY=0.5;exitDx=0;exitDy=0;entryX=1;entryY=0.5;entryDx=0;entryDy=0;" edge="1" parent="1" source="S_kCAmrRLUKjRK4tz0ea-84" target="S_kCAmrRLUKjRK4tz0ea-87">
          <mxGeometry relative="1" as="geometry" />
        </mxCell>
        <mxCell id="S_kCAmrRLUKjRK4tz0ea-84" value="(9) 测试执行&lt;span style=&quot;color: rgba(0, 0, 0, 0); font-family: monospace; font-size: 0px; text-align: start; text-wrap-mode: nowrap;&quot;&gt;%3CmxGraphModel%3E%3Croot%3E%3CmxCell%20id%3D%220%22%2F%3E%3CmxCell%20id%3D%221%22%20parent%3D%220%22%2F%3E%3CmxCell%20id%3D%222%22%20value%3D%22(5)%20%E6%80%A7%E8%83%BD%E6%A8%A1%E5%9E%8B%E6%9E%84%E5%BB%BA%22%20style%3D%22rounded%3D0%3BwhiteSpace%3Dwrap%3Bhtml%3D1%3B%22%20vertex%3D%221%22%20parent%3D%221%22%3E%3CmxGeometry%20x%3D%22670%22%20y%3D%22340%22%20width%3D%22120%22%20height%3D%2260%22%20as%3D%22geometry%22%2F%3E%3C%2FmxCell%3E%3C%2Froot%3E%3C%2FmxGraphModel%3E&lt;/span&gt;&lt;span style=&quot;color: rgba(0, 0, 0, 0); font-family: monospace; font-size: 0px; text-align: start; text-wrap-mode: nowrap;&quot;&gt;%3CmxGraphModel%3E%3Croot%3E%3CmxCell%20id%3D%220%22%2F%3E%3CmxCell%20id%3D%221%22%20parent%3D%220%22%2F%3E%3CmxCell%20id%3D%222%22%20value%3D%22(5)%20%E6%80%A7%E8%83%BD%E6%A8%A1%E5%9E%8B%E6%9E%84%E5%BB%BA%22%20style%3D%22rounded%3D0%3BwhiteSpace%3Dwrap%3Bhtml%3D1%3B%22%20vertex%3D%221%22%20parent%3D%221%22%3E%3CmxGeometry%20x%3D%22670%22%20y%3D%22340%22%20width%3D%22120%22%20height%3D%2260%22%20as%3D%22geometry%22%2F%3E%3C%2FmxCell%3E%3C%2Froot%3E%3C%2FmxGraphModel%3E衍生&lt;/span&gt;" style="rounded=0;whiteSpace=wrap;html=1;" vertex="1" parent="1">
          <mxGeometry x="591" y="570" width="100" height="49.5" as="geometry" />
        </mxCell>
        <mxCell id="S_kCAmrRLUKjRK4tz0ea-85" value="" style="rounded=0;whiteSpace=wrap;html=1;" vertex="1" parent="1">
          <mxGeometry x="70" y="491" width="170" height="150" as="geometry" />
        </mxCell>
        <mxCell id="S_kCAmrRLUKjRK4tz0ea-87" value="" style="rounded=1;whiteSpace=wrap;html=1;" vertex="1" parent="1">
          <mxGeometry x="270" y="558" width="270" height="74.25" as="geometry" />
        </mxCell>
        <mxCell id="S_kCAmrRLUKjRK4tz0ea-90" value="原始测试用例输出" style="text;html=1;align=center;verticalAlign=middle;whiteSpace=wrap;rounded=0;" vertex="1" parent="1">
          <mxGeometry x="280" y="600.75" width="82.5" height="19.5" as="geometry" />
        </mxCell>
        <mxCell id="S_kCAmrRLUKjRK4tz0ea-93" value="衍生测试用例&lt;div&gt;输出&lt;/div&gt;" style="text;html=1;align=center;verticalAlign=middle;whiteSpace=wrap;rounded=0;" vertex="1" parent="1">
          <mxGeometry x="372" y="596.5" width="82.5" height="20" as="geometry" />
        </mxCell>
        <mxCell id="S_kCAmrRLUKjRK4tz0ea-95" value="" style="shape=image;verticalLabelPosition=bottom;labelBackgroundColor=default;verticalAlign=top;aspect=fixed;imageAspect=0;image=data:image/png,iVBORw0KGgoAAAANSUhEUgAAADAAAAAwCAYAAABXAvmHAAAAAXNSR0IArs4c6QAAAuZJREFUaEPVWr2O2kAQXpc5GqSUXNqEhpa4p+El7g1yEo+CdHmDewkaeudaGlInlEg0HKWjj9xIo9F6Z3bXxtgVd/v3fTPfzI7XWzj21HX94Jz7/PGvT7ztDn5fnHPvwFEUxZHwFPjBgN8b6Ca7gcClKIp3IgCrk+XvwNgmCCDwp6jreojgieHfoRO4gMAX59xQtC+1dSXwVVPccrl8Pp1O8/P5PNf6prZPJpOfm83mJXa8SqAsy9cugUvAu93uWwyJIAFY/nA4/MCEo9HobTwev8VMHtOXr1NV1ZN1rJlArGWsAKgfeRqGao1A6qSx4NF/tVrNt9vta2wsBD1wSwIppK9lRSgL9UEAawIYEofFG8kE4HKL1dbrtSnwSUJyTi0mkgnMZrPfFgLos1gsnkJEeLajjMdTd8gTSQSarNVEKJTBJHgO1iLhJAIENFdGIfBYg7wcklEWAauEfP3kDi9lxttbl1AOcHitqqpn0jisW5blC8WIlKeWiW7qAQlOSkOTlM9wyQQoX8tJUS/5qkoNnNbe5PUkAloWknrWwGntIckmEcCE9I7gm5wXYzHBatkz5HrJBCyBzMH7gjUUzJb5O6uFtGDV2q3gOyGgpcGQ3jHWWjsRyVYlpAVjqJ3atOKtsxjIAQ9Qlrqn1X2ATybBh8qCpkzTKwGebTh4rWzgRuiVAFWNvG6JzTS9EZBHLyjMeH6HlWVB5ivDaczNg1jqXwaaBK8dlN2cQAiQVhP5sopWPneSRuGF6XT6i08uNyQeE1RWoL8mN21XbnUjCy3GpUae0fYODXwnpUTTopLAfr//TuehvkC3gO+NACTEj020Y5fs9wFMkHu425StcsCrHvBVllbXyn6+DyS54FUCvMhKBd40rg3wJgLopG1WMeTkm1nM2KZqdPAf+YZM4IiNDPcjHnNd2dP4I101GKIXjrj0wS974GP3UO5L4OYKCPy/7EHPx70J/AlZ3dvXe4DGcwVOmP8BNb/iv0zxcP0AAAAASUVORK5CYII=;" vertex="1" parent="1">
          <mxGeometry x="305.25" y="563.25" width="35" height="35" as="geometry" />
        </mxCell>
        <mxCell id="S_kCAmrRLUKjRK4tz0ea-96" value="" style="shape=image;verticalLabelPosition=bottom;labelBackgroundColor=default;verticalAlign=top;aspect=fixed;imageAspect=0;image=data:image/png,iVBORw0KGgoAAAANSUhEUgAAADAAAAAwCAYAAABXAvmHAAAAAXNSR0IArs4c6QAAAmxJREFUaEPVWVGWgyAMxPtwh92ebNuTbXsH7rP74gNfjESGgD7w01LMJJPJiIv3/ts59+Oc+4QQnm6ya/He/7GYHyGE94gYYqLX0HiMwwNgDCGmpIuS/CIgMwDgDNmRI4SwDA3Ae089Sf1J10pvcW/sCnjvf51zRB2iyyYw7P40AN4hhEfiD6vCNAAo9rUKsampMuu90XuA6JOCPaj78E1MEYumnV5GN/1PSEanEJdRmsCL5NFMAHZSOksF+BS+DgBJW28TKJs3Rx+qQhOF2ERMFc1myeJuhUtW9zUDyAS/xallCwWCZt9cAWmoaCJGz5KM1270o4FnrMI2gbU9TBXg2efZ5iaLexcDgGLzNqmQFiivjJVGNfRpoVCyuZrJKpZeqwravK0VODVZIjhYmWqzb65ANFm8CgjNi0AEgOL6ngB2JktxkKe0Ej4fpqBVhSSFstlCgMTAab+vKMVrNVERsAIoukRF0xGqwdk3U6hWKWLP7EALJERBfu4DH7BVV8CiFDzYDK3ScQmnJTzJLQDgKXmi9aXjkmt6QMseSmzWFwmAelyCWpGqCkgThz5EApRHI/F3rkLQDKhuYkvzAjQ6LEEltApAa/PmgGQoeTh1KNETplDP7OcoZX0lPQWgnM3T82GdLmWw9XcVwIkNgDW6NTjk/1kAmVfGj/AqsEogQbSsKQK44pWxJWD5Xw1AadDAk7JnsLm9SgB2gTIlGqYPNADS70u3OHYPFOzvMMEXJ3FUI1pHPoWu9dvs1byu2R+exDWb3rlWAqAjwqEyrCUjMUECuDN5PZ51+ErZY9Nb96AKnL1s3xqM4WGvf2QhU6eGOUfhAAAAAElFTkSuQmCC;" vertex="1" parent="1">
          <mxGeometry x="478.25" y="564.62" width="30" height="30" as="geometry" />
        </mxCell>
        <mxCell id="S_kCAmrRLUKjRK4tz0ea-100" value="" style="shape=image;verticalLabelPosition=bottom;labelBackgroundColor=default;verticalAlign=top;aspect=fixed;imageAspect=0;image=data:image/png,iVBORw0KGgoAAAANSUhEUgAAADAAAAAwCAYAAABXAvmHAAAAAXNSR0IArs4c6QAAAuZJREFUaEPVWr2O2kAQXpc5GqSUXNqEhpa4p+El7g1yEo+CdHmDewkaeudaGlInlEg0HKWjj9xIo9F6Z3bXxtgVd/v3fTPfzI7XWzj21HX94Jz7/PGvT7ztDn5fnHPvwFEUxZHwFPjBgN8b6Ca7gcClKIp3IgCrk+XvwNgmCCDwp6jreojgieHfoRO4gMAX59xQtC+1dSXwVVPccrl8Pp1O8/P5PNf6prZPJpOfm83mJXa8SqAsy9cugUvAu93uWwyJIAFY/nA4/MCEo9HobTwev8VMHtOXr1NV1ZN1rJlArGWsAKgfeRqGao1A6qSx4NF/tVrNt9vta2wsBD1wSwIppK9lRSgL9UEAawIYEofFG8kE4HKL1dbrtSnwSUJyTi0mkgnMZrPfFgLos1gsnkJEeLajjMdTd8gTSQSarNVEKJTBJHgO1iLhJAIENFdGIfBYg7wcklEWAauEfP3kDi9lxttbl1AOcHitqqpn0jisW5blC8WIlKeWiW7qAQlOSkOTlM9wyQQoX8tJUS/5qkoNnNbe5PUkAloWknrWwGntIckmEcCE9I7gm5wXYzHBatkz5HrJBCyBzMH7gjUUzJb5O6uFtGDV2q3gOyGgpcGQ3jHWWjsRyVYlpAVjqJ3atOKtsxjIAQ9Qlrqn1X2ATybBh8qCpkzTKwGebTh4rWzgRuiVAFWNvG6JzTS9EZBHLyjMeH6HlWVB5ivDaczNg1jqXwaaBK8dlN2cQAiQVhP5sopWPneSRuGF6XT6i08uNyQeE1RWoL8mN21XbnUjCy3GpUae0fYODXwnpUTTopLAfr//TuehvkC3gO+NACTEj020Y5fs9wFMkHu425StcsCrHvBVllbXyn6+DyS54FUCvMhKBd40rg3wJgLopG1WMeTkm1nM2KZqdPAf+YZM4IiNDPcjHnNd2dP4I101GKIXjrj0wS974GP3UO5L4OYKCPy/7EHPx70J/AlZ3dvXe4DGcwVOmP8BNb/iv0zxcP0AAAAASUVORK5CYII=;" vertex="1" parent="1">
          <mxGeometry x="395.75" y="559.5" width="35" height="35" as="geometry" />
        </mxCell>
        <mxCell id="S_kCAmrRLUKjRK4tz0ea-101" value="性能监控日志" style="text;html=1;align=center;verticalAlign=middle;whiteSpace=wrap;rounded=0;" vertex="1" parent="1">
          <mxGeometry x="454.5" y="596.5" width="82.5" height="20" as="geometry" />
        </mxCell>
        <mxCell id="S_kCAmrRLUKjRK4tz0ea-103" value="(9) 测试结果判定&lt;span style=&quot;text-wrap-mode: nowrap; color: rgba(0, 0, 0, 0); font-family: monospace; font-size: 0px; text-align: start;&quot;&gt;%3CmxGraphModel%3E%3Croot%3E%3CmxCell%20id%3D%220%22%2F%3E%3CmxCell%20id%3D%221%22%20parent%3D%220%22%2F%3E%3CmxCell%20id%3D%222%22%20value%3D%22(5)%20%E6%80%A7%E8%83%BD%E6%A8%A1%E5%9E%8B%E6%9E%84%E5%BB%BA%22%20style%3D%22rounded%3D0%3BwhiteSpace%3Dwrap%3Bhtml%3D1%3B%22%20vertex%3D%221%22%20parent%3D%221%22%3E%3CmxGeometry%20x%3D%22670%22%20y%3D%22340%22%20width%3D%22120%22%20height%3D%2260%22%20as%3D%22geometry%22%2F%3E%3C%2FmxCell%3E%3C%2Froot%3E%3C%2FmxGraphModel%3E&lt;/span&gt;&lt;span style=&quot;text-wrap-mode: nowrap; color: rgba(0, 0, 0, 0); font-family: monospace; font-size: 0px; text-align: start;&quot;&gt;%3CmxGraphModel%3E%3Croot%3E%3CmxCell%20id%3D%220%22%2F%3E%3CmxCell%20id%3D%221%22%20parent%3D%220%22%2F%3E%3CmxCell%20id%3D%222%22%20value%3D%22(5)%20%E6%80%A7%E8%83%BD%E6%A8%A1%E5%9E%8B%E6%9E%84%E5%BB%BA%22%20style%3D%22rounded%3D0%3BwhiteSpace%3Dwrap%3Bhtml%3D1%3B%22%20vertex%3D%221%22%20parent%3D%221%22%3E%3CmxGeometry%20x%3D%22670%22%20y%3D%22340%22%20width%3D%22120%22%20height%3D%2260%22%20as%3D%22geometry%22%2F%3E%3C%2FmxCell%3E%3C%2Froot%3E%3C%2FmxGraphModel%3E衍生&lt;/span&gt;" style="rounded=0;whiteSpace=wrap;html=1;" vertex="1" parent="1">
          <mxGeometry x="70" y="484.25" width="170" height="46.75" as="geometry" />
        </mxCell>
        <mxCell id="S_kCAmrRLUKjRK4tz0ea-104" value="输出结果判定" style="rounded=0;whiteSpace=wrap;html=1;" vertex="1" parent="1">
          <mxGeometry x="90" y="546" width="120" height="35" as="geometry" />
        </mxCell>
        <mxCell id="S_kCAmrRLUKjRK4tz0ea-105" value="性能日志分析与定位" style="rounded=0;whiteSpace=wrap;html=1;" vertex="1" parent="1">
          <mxGeometry x="90" y="596" width="120" height="35" as="geometry" />
        </mxCell>
        <mxCell id="S_kCAmrRLUKjRK4tz0ea-108" value="" style="endArrow=classic;html=1;rounded=0;exitX=0;exitY=0.5;exitDx=0;exitDy=0;entryX=0.994;entryY=0.693;entryDx=0;entryDy=0;entryPerimeter=0;" edge="1" parent="1" source="S_kCAmrRLUKjRK4tz0ea-87" target="S_kCAmrRLUKjRK4tz0ea-85">
          <mxGeometry width="50" height="50" relative="1" as="geometry">
            <mxPoint x="250" y="550" as="sourcePoint" />
            <mxPoint x="300" y="500" as="targetPoint" />
          </mxGeometry>
        </mxCell>
        <mxCell id="S_kCAmrRLUKjRK4tz0ea-109" value="" style="shape=image;verticalLabelPosition=bottom;labelBackgroundColor=default;verticalAlign=top;aspect=fixed;imageAspect=0;image=data:image/png,iVBORw0KGgoAAAANSUhEUgAAADAAAAAwCAYAAABXAvmHAAAAAXNSR0IArs4c6QAAAeNJREFUaEPtWltywjAMLPfRHSgnazlZ6R18nxZl7IwxemBHmw7U+eEjkbwrraJY5vD25NcBhZ+I3rNv/r2klC6ItcIJZOAfV9CFQMHNBM7RRBAEvgTwK4mU0ikyEy6BSgrruloU87NMwLpOkr20DjvxMqYSICIrkiyFz4Ky0TvLx7oWKbXgiIj9abY369XORQKNM6n4vpmAofcelSzgKl+tbaklMXMeAZU5r0JEPz1IjWdFcHkNJsBq4DfZXf1oBIp8LMdWynt5qYGq6iqcgFUjvQREcOgMRBL4kwwUbfZGW3p+fwI5vRF14L0oMEVch1FrQl5qvCYFrQEPXNR92FsoCqDnZxKwdDqq/TbqD6wR24mdDy9PFdp98W0EkVDgN1BNRuzGKAKRXbiQ2C8DVRM7jupFsBO3m5AMBIJ2XU0Cj7R7N4wbHpgZMCYI0uxnNNa8yReHX5AMgBrZ0/cBngHd7dFRGYjcjbHseHSzjGpaDUIIjAp9xG4SmH1gRDeVDUxC2XF7BjAMVypg2Kb+FfpA1FD3JmN79oGX2dAMa74xVA8BYUUchdzzMwnMRuZpxLn/byW0zuT5M3djELea8+iG8YhzI+ucGNKsBtmoZ2jmSX3+ZBhcM8zM/KOI+1eDMBggR78j2iZPYnsU0gAAAABJRU5ErkJggg==;" vertex="1" parent="1">
          <mxGeometry x="-30" y="573" width="40" height="40" as="geometry" />
        </mxCell>
        <mxCell id="S_kCAmrRLUKjRK4tz0ea-110" value="测试报告" style="text;html=1;align=center;verticalAlign=middle;whiteSpace=wrap;rounded=0;" vertex="1" parent="1">
          <mxGeometry x="-50" y="611.5" width="80" height="26" as="geometry" />
        </mxCell>
        <mxCell id="S_kCAmrRLUKjRK4tz0ea-111" value="" style="endArrow=classic;html=1;rounded=0;exitX=-0.002;exitY=0.683;exitDx=0;exitDy=0;entryX=1;entryY=0.5;entryDx=0;entryDy=0;exitPerimeter=0;" edge="1" parent="1" source="S_kCAmrRLUKjRK4tz0ea-85" target="S_kCAmrRLUKjRK4tz0ea-109">
          <mxGeometry width="50" height="50" relative="1" as="geometry">
            <mxPoint x="250" y="480" as="sourcePoint" />
            <mxPoint x="300" y="430" as="targetPoint" />
          </mxGeometry>
        </mxCell>
      </root>
    </mxGraphModel>
  </diagram>
</mxfile>
